<mxfile host="app.diagrams.net" agent="Mozilla/5.0 (Windows NT 10.0; Win64; x64; rv:131.0) Gecko/20100101 Firefox/131.0" version="24.7.17">
  <diagram name="Page-1" id="ConOzosgfRx71z7twIzJ">
    <mxGraphModel dx="1434" dy="774" grid="1" gridSize="10" guides="1" tooltips="1" connect="1" arrows="1" fold="1" page="1" pageScale="1" pageWidth="850" pageHeight="1100" math="0" shadow="0">
      <root>
        <mxCell id="0" />
        <mxCell id="1" parent="0" />
        <mxCell id="ZJ_EP3jpg2wy-UyA9z9G-1" value="Sistema" style="ellipse;whiteSpace=wrap;html=1;aspect=fixed;" parent="1" vertex="1">
          <mxGeometry x="370" y="310" width="120" height="120" as="geometry" />
        </mxCell>
        <mxCell id="ZJ_EP3jpg2wy-UyA9z9G-2" value="&lt;div&gt;Admin&lt;/div&gt;" style="rounded=0;whiteSpace=wrap;html=1;" parent="1" vertex="1">
          <mxGeometry x="370" y="520" width="120" height="60" as="geometry" />
        </mxCell>
        <mxCell id="ZJ_EP3jpg2wy-UyA9z9G-7" value="Utilizadores" style="rounded=0;whiteSpace=wrap;html=1;" parent="1" vertex="1">
          <mxGeometry x="590" y="340" width="120" height="60" as="geometry" />
        </mxCell>
        <mxCell id="ZJ_EP3jpg2wy-UyA9z9G-14" value="" style="endArrow=classic;html=1;rounded=0;" parent="1" source="ZJ_EP3jpg2wy-UyA9z9G-2" target="ZJ_EP3jpg2wy-UyA9z9G-1" edge="1">
          <mxGeometry width="50" height="50" relative="1" as="geometry">
            <mxPoint x="400" y="430" as="sourcePoint" />
            <mxPoint x="450" y="380" as="targetPoint" />
          </mxGeometry>
        </mxCell>
        <mxCell id="ZJ_EP3jpg2wy-UyA9z9G-17" value="" style="endArrow=classic;html=1;rounded=0;" parent="1" source="ZJ_EP3jpg2wy-UyA9z9G-1" target="ZJ_EP3jpg2wy-UyA9z9G-7" edge="1">
          <mxGeometry width="50" height="50" relative="1" as="geometry">
            <mxPoint x="550" y="460" as="sourcePoint" />
            <mxPoint x="482" y="422" as="targetPoint" />
          </mxGeometry>
        </mxCell>
        <mxCell id="lgYgkRpYF-z2kPH9ygtV-1" value="Novo livro" style="text;html=1;align=center;verticalAlign=middle;whiteSpace=wrap;rounded=0;" vertex="1" parent="1">
          <mxGeometry x="440" y="460" width="70" height="40" as="geometry" />
        </mxCell>
        <mxCell id="lgYgkRpYF-z2kPH9ygtV-2" value="Visitantes" style="rounded=0;whiteSpace=wrap;html=1;" vertex="1" parent="1">
          <mxGeometry x="180" y="270" width="120" height="60" as="geometry" />
        </mxCell>
        <mxCell id="lgYgkRpYF-z2kPH9ygtV-3" value="" style="endArrow=classic;html=1;rounded=0;exitX=0.5;exitY=0;exitDx=0;exitDy=0;" edge="1" parent="1" source="ZJ_EP3jpg2wy-UyA9z9G-1" target="lgYgkRpYF-z2kPH9ygtV-2">
          <mxGeometry width="50" height="50" relative="1" as="geometry">
            <mxPoint x="400" y="430" as="sourcePoint" />
            <mxPoint x="200" y="190" as="targetPoint" />
            <Array as="points">
              <mxPoint x="430" y="200" />
              <mxPoint x="240" y="200" />
            </Array>
          </mxGeometry>
        </mxCell>
        <mxCell id="lgYgkRpYF-z2kPH9ygtV-4" value="Lista de livros" style="text;html=1;align=center;verticalAlign=middle;whiteSpace=wrap;rounded=0;" vertex="1" parent="1">
          <mxGeometry x="510" y="330" width="70" height="40" as="geometry" />
        </mxCell>
        <mxCell id="lgYgkRpYF-z2kPH9ygtV-5" value="Lista de livros" style="text;html=1;align=center;verticalAlign=middle;whiteSpace=wrap;rounded=0;" vertex="1" parent="1">
          <mxGeometry x="300" y="150" width="70" height="40" as="geometry" />
        </mxCell>
        <mxCell id="lgYgkRpYF-z2kPH9ygtV-6" value="" style="endArrow=classic;html=1;rounded=0;" edge="1" parent="1" source="lgYgkRpYF-z2kPH9ygtV-2" target="ZJ_EP3jpg2wy-UyA9z9G-1">
          <mxGeometry width="50" height="50" relative="1" as="geometry">
            <mxPoint x="400" y="430" as="sourcePoint" />
            <mxPoint x="240" y="420" as="targetPoint" />
            <Array as="points">
              <mxPoint x="240" y="370" />
            </Array>
          </mxGeometry>
        </mxCell>
        <mxCell id="lgYgkRpYF-z2kPH9ygtV-7" value="Ler livros&amp;nbsp; gratis" style="text;html=1;align=center;verticalAlign=middle;whiteSpace=wrap;rounded=0;" vertex="1" parent="1">
          <mxGeometry x="260" y="370" width="70" height="40" as="geometry" />
        </mxCell>
        <mxCell id="lgYgkRpYF-z2kPH9ygtV-11" value="" style="endArrow=classic;html=1;rounded=0;exitX=1;exitY=0;exitDx=0;exitDy=0;" edge="1" parent="1" source="lgYgkRpYF-z2kPH9ygtV-2" target="ZJ_EP3jpg2wy-UyA9z9G-1">
          <mxGeometry width="50" height="50" relative="1" as="geometry">
            <mxPoint x="285" y="270" as="sourcePoint" />
            <mxPoint x="425" y="270" as="targetPoint" />
            <Array as="points">
              <mxPoint x="400" y="270" />
            </Array>
          </mxGeometry>
        </mxCell>
        <mxCell id="lgYgkRpYF-z2kPH9ygtV-12" value="Fazer registo" style="text;html=1;align=center;verticalAlign=middle;whiteSpace=wrap;rounded=0;" vertex="1" parent="1">
          <mxGeometry x="310" y="240" width="60" height="30" as="geometry" />
        </mxCell>
      </root>
    </mxGraphModel>
  </diagram>
</mxfile>
